<svg xmlns="http://www.w3.org/2000/svg" xmlns:xlink="http://www.w3.org/1999/xlink" viewBox="0 0 278.55 311.87">
  <defs>
    <style>
      .a {
        fill: none;
      }

      .b {
        clip-path: url(#a);
      }

      .c {
        fill: #ca9e67;
      }

      .d {
        fill: #124734;
      }

      .e {
        fill: #fff;
      }
    </style>
    <clipPath id="a" transform="translate(0 0)">
      <rect class="a" width="278.56" height="311.88"/>
    </clipPath>
  </defs>
  <title>logo</title>
  <g class="b">
    <path class="c" d="M135.74,309.66c-16.75-10.53-43.93-24-58.11-30.55-14.62-6.71-37.56-20.7-54.14-38-25.95-27.13-16.63-77-11.07-106.8,1-5.45,1.9-10.16,2.43-13.95,3.21-23-7.71-67.06-13.18-83.6L0,31.71,4.61,29.1C39.23,9.52,83.21,0,139.06,0,195.2,0,239.32,9.52,273.94,29.1l4.61,2.61-1.66,5c-5.48,16.54-16.4,60.55-13.19,83.6.53,3.79,1.41,8.5,2.43,13.95,5.57,29.8,14.88,79.67-11.07,106.8-16.57,17.32-39.52,31.31-54.14,38-14.18,6.51-41.36,20-58.11,30.55l-3.55,2.21Z" transform="translate(0 0)"/>
    <path class="d" d="M270.76,34.71C225.1,8.89,169.87,6.45,139.06,6.45S53.45,8.89,7.79,34.71c5.13,15.49,16.93,61.57,13.45,86.52s-21.18,86,6.92,115.4c15.45,16.15,37.53,29.9,52.16,36.62s42,20.37,58.86,30.95l.1.06.1-.06c16.84-10.58,44.27-24.26,58.85-30.95S235,252.78,250.4,236.63c28.1-29.37,10.39-90.46,6.91-115.4s8.33-71,13.45-86.52" transform="translate(0 0)"/>
    <path class="c" d="M213.36,222.31c-1.93,2.07-3.84,4.15-5.77,6.2a1.46,1.46,0,0,1-.93.5,17.14,17.14,0,0,0-9.94,2.5c.9-1.15,1.53-2.44,2.9-3.25,5.06-3,7.55-7.51,7.81-13.34a4.83,4.83,0,0,1,.35-1.49A72.19,72.19,0,0,0,211.62,202l-.16-.07c-.18.36-.38.71-.55,1.08-1.51,3.37-3,6.75-4.52,10.11a2.12,2.12,0,0,1-.76.89,15.76,15.76,0,0,0-8.23,13.74,2.06,2.06,0,0,1-.47,1.14A109.35,109.35,0,0,1,186.35,240a88.35,88.35,0,0,1-23.26,15.58,86.24,86.24,0,0,1-23.63,6.51,5.43,5.43,0,0,0-.58.13,5.43,5.43,0,0,0-.58-.13,86.17,86.17,0,0,1-23.62-6.51A88.23,88.23,0,0,1,91.41,240a110.46,110.46,0,0,1-10.58-11.16,2.06,2.06,0,0,1-.47-1.14A15.76,15.76,0,0,0,72.13,214a2,2,0,0,1-.75-.89c-1.53-3.36-3-6.74-4.53-10.11-.16-.37-.36-.72-.55-1.08l-.15.07A71.16,71.16,0,0,0,70,213.43a4.32,4.32,0,0,1,.35,1.49c.26,5.83,2.76,10.37,7.81,13.34,1.37.81,2,2.1,2.9,3.25A17.14,17.14,0,0,0,71.1,229a1.44,1.44,0,0,1-.92-.5c-1.94-2-3.84-4.13-5.77-6.2-.31-.33-.68-.59-1-.89l.66,1.41c1.08,1.46,2.1,2.95,3.24,4.36,1.45,1.82,3,3.58,4.5,5.35,3.59,4.24,8.26,5.79,13.67,5.42a1.57,1.57,0,0,1,1.56.6c.48.61,1,1.14,1.73,1.88a16.43,16.43,0,0,0-8.08-1h-.08c-1.74.65-3.14,0-4.51-1.07-1.87-1.44-3.82-2.78-5.74-4.16a2.23,2.23,0,0,0-1-.47c.25.29.47.61.74.88a51.37,51.37,0,0,0,9.09,7.42,4.48,4.48,0,0,1,.7.51c4.17,3.89,9.09,5,14.6,3.91a1.74,1.74,0,0,1,1.22.3c.73.49,1.39,1.1,2.26,1.81a16.27,16.27,0,0,0-6.35.1,10.31,10.31,0,0,0-2,.52,2.66,2.66,0,0,1-2.38-.11c-2.34-1.07-4.69-2.1-7-3.14a4.28,4.28,0,0,0-1.51-.43c.23.18.44.4.69.56,1.62,1,3.21,2,4.88,2.95,2.35,1.28,4.76,2.43,7,3.86,4,2.54,8.45,2.69,12.91,1.22a2.17,2.17,0,0,1,2.3.26,9.92,9.92,0,0,0,1.05.64,2.2,2.2,0,0,1-.43.16,18,18,0,0,0-6.72,1.85,2.65,2.65,0,0,1-1.54.21c-2.89-.57-5.76-1.22-8.64-1.84l-1.31-.27a1.8,1.8,0,0,0-.08.21,6.84,6.84,0,0,0,.86.42l9,2.88a8.71,8.71,0,0,1,1.52.59,15.49,15.49,0,0,0,15.31.55,1.8,1.8,0,0,1,1.7-.06c1.2.53,2.44,1,3.88,1.55a20,20,0,0,0-13.76,11c.13-.14.27-.28.39-.42l.43-.54c3.73-4.55,8.32-7.69,14.22-8.65a6.62,6.62,0,0,1,4.41.36,19,19,0,0,0-10.25,7c1.75-1.14,3.26-2.21,4.85-3.14a20,20,0,0,1,8.92-2.8,10,10,0,0,1,1.89.12c2,.29,4.08.61,6.12.92a1.93,1.93,0,0,0,.63.1,2,2,0,0,0,.64-.1c2-.31,4.07-.63,6.12-.92a9.9,9.9,0,0,1,1.88-.12,20,20,0,0,1,8.92,2.8c1.59.93,3.11,2,4.86,3.14a19,19,0,0,0-10.26-7,6.62,6.62,0,0,1,4.41-.36c5.9,1,10.49,4.1,14.22,8.65l.43.54.39.42a20,20,0,0,0-13.76-11c1.45-.57,2.69-1,3.89-1.55a1.78,1.78,0,0,1,1.69.06,15.49,15.49,0,0,0,15.31-.55,8.71,8.71,0,0,1,1.52-.59c3-1,6-1.91,9-2.88a6.23,6.23,0,0,0,.86-.42c0-.07-.05-.14-.07-.21l-1.32.27c-2.88.62-5.75,1.27-8.64,1.84a2.65,2.65,0,0,1-1.54-.21,18,18,0,0,0-6.71-1.85,2,2,0,0,1-.44-.16,9,9,0,0,0,1.05-.64,2.19,2.19,0,0,1,2.31-.26c4.46,1.47,8.85,1.32,12.9-1.22,2.28-1.43,4.69-2.58,7-3.86,1.67-.91,3.26-2,4.89-2.95a7.5,7.5,0,0,0,.68-.56,4.34,4.34,0,0,0-1.51.43c-2.35,1-4.7,2.07-7,3.14a2.66,2.66,0,0,1-2.38.11,10.31,10.31,0,0,0-2-.52,16.22,16.22,0,0,0-6.34-.1c.86-.71,1.52-1.32,2.25-1.81a1.74,1.74,0,0,1,1.22-.3c5.52,1.08,10.43,0,14.6-3.91a5,5,0,0,1,.7-.51,51,51,0,0,0,9.09-7.42c.27-.27.5-.59.74-.88a2.23,2.23,0,0,0-1,.47c-1.92,1.38-3.87,2.72-5.74,4.16-1.37,1.06-2.76,1.72-4.51,1.07h-.08a16.45,16.45,0,0,0-8.08,1c.69-.74,1.25-1.27,1.73-1.88a1.59,1.59,0,0,1,1.56-.6c5.41.37,10.08-1.18,13.67-5.42,1.51-1.77,3.05-3.53,4.51-5.35,1.13-1.41,2.15-2.9,3.23-4.36l.66-1.41a12.35,12.35,0,0,0-1,.89" transform="translate(0 0)"/>
    <path class="c" d="M180.89,232c-1.75,3.81-1.49,7.71-.35,11.7a5,5,0,0,0,.57-.39,18.12,18.12,0,0,0,4.32-5.45,15.6,15.6,0,0,0,1-10.87,2.58,2.58,0,0,1,.21-1.89c1.34-2.65,2.66-5.31,4-8,.22-.45.43-.91.64-1.37l-.19-.11a6.69,6.69,0,0,0-.5.58q-2.15,3.3-4.26,6.61c-1.25,2-2,4.19-3.57,6a12.83,12.83,0,0,0-1.9,3.17" transform="translate(0 0)"/>
    <path class="c" d="M171,250.08a1.91,1.91,0,0,0,.16.36,17.67,17.67,0,0,0,5.66-6.51A16.36,16.36,0,0,0,178,233.79a2.29,2.29,0,0,1,.2-1.29c.83-1.52,1.72-3,2.59-4.49l2.55-4.29-.22-.12a8.27,8.27,0,0,0-.75.81c-1.59,2.12-3.17,4.24-4.72,6.39a51.79,51.79,0,0,1-3,4.38c-3.89,4.35-4.81,9.35-3.59,14.9" transform="translate(0 0)"/>
    <path class="c" d="M189.93,234.64a17.68,17.68,0,0,0,4-5.16,15.58,15.58,0,0,0,1-11.53,2.05,2.05,0,0,1,.1-1.3c1-2.05,2.07-4.06,3.13-6.08.33-.64.72-1.26,1.05-1.9s.61-1.29.91-1.94a1.23,1.23,0,0,0-.54.43c-1.52,2.17-3.08,4.31-4.54,6.53a59.73,59.73,0,0,1-3.29,5.15,13.85,13.85,0,0,0-3.06,7.6,18.14,18.14,0,0,0,1.24,8.2" transform="translate(0 0)"/>
    <path class="c" d="M160.73,255.44c5.49-3.14,8.48-7.8,8.57-14.21a3,3,0,0,1,.24-1.33c.94-1.72,1.93-3.41,2.93-5.09.83-1.41,1.7-2.79,2.55-4.18l-.2-.13a8.19,8.19,0,0,0-.77.79c-1.58,2.08-3.2,4.14-4.71,6.29a12.52,12.52,0,0,1-3,3.25,14.48,14.48,0,0,0-6,9.07,17.74,17.74,0,0,0-.3,5.88c.31-.15.52-.23.72-.34" transform="translate(0 0)"/>
    <path class="c" d="M151.44,244.77a6.25,6.25,0,0,1,4.7,7,8.59,8.59,0,0,1-2.95,5.45,15.19,15.19,0,0,1,1.84-.6,2.72,2.72,0,0,0,2.1-2,9.42,9.42,0,0,0,.5-4.34,7.31,7.31,0,0,0-6.44-6.38,5,5,0,0,0-4.38,1.84,4.21,4.21,0,0,0,.94-.38,5.62,5.62,0,0,1,3.69-.55" transform="translate(0 0)"/>
    <path class="c" d="M154.17,250.06c-.91,3.76-2.79,6.78-6.33,8.61,1.69-.45,3.58-.38,4.57-2.19.22-.41.5-.78.71-1.19a9.19,9.19,0,0,0,1-5.23" transform="translate(0 0)"/>
    <path class="c" d="M91.08,225.08a2.58,2.58,0,0,1,.21,1.89,15.6,15.6,0,0,0,1,10.87,18.12,18.12,0,0,0,4.32,5.45,5,5,0,0,0,.57.39c1.14-4,1.4-7.89-.35-11.7a12.83,12.83,0,0,0-1.9-3.17c-1.57-1.8-2.32-4-3.57-6-1.4-2.21-2.83-4.41-4.26-6.61a5.37,5.37,0,0,0-.5-.57l-.19.1c.21.46.42.92.64,1.37,1.33,2.66,2.65,5.32,4,8" transform="translate(0 0)"/>
    <path class="c" d="M99.55,232.5a2.13,2.13,0,0,1,.2,1.29,16.36,16.36,0,0,0,1.17,10.14,17.76,17.76,0,0,0,5.66,6.51,1.91,1.91,0,0,0,.16-.36c1.22-5.55.3-10.55-3.59-14.9a51.79,51.79,0,0,1-3.05-4.38c-1.54-2.15-3.13-4.27-4.72-6.4a9.36,9.36,0,0,0-.75-.8l-.22.12L97,228c.87,1.49,1.76,3,2.59,4.49" transform="translate(0 0)"/>
    <path class="c" d="M79.6,210.57c1.06,2,2.12,4,3.13,6.08a2,2,0,0,1,.1,1.29,15.65,15.65,0,0,0,1,11.54,17.68,17.68,0,0,0,4,5.16,18,18,0,0,0,1.24-8.2,13.7,13.7,0,0,0-3.06-7.6,59.73,59.73,0,0,1-3.29-5.15c-1.46-2.22-3-4.36-4.54-6.53a1.18,1.18,0,0,0-.54-.43c.3.65.59,1.3.92,1.94s.71,1.26,1,1.9" transform="translate(0 0)"/>
    <path class="c" d="M108.22,239.9a3,3,0,0,1,.24,1.33c.09,6.41,3.08,11.07,8.58,14.21.19.11.4.19.71.34a17.74,17.74,0,0,0-.3-5.88,14.44,14.44,0,0,0-6-9.07,12.52,12.52,0,0,1-3-3.25c-1.5-2.15-3.13-4.21-4.71-6.29a8.19,8.19,0,0,0-.77-.79l-.2.13c.85,1.39,1.72,2.77,2.55,4.18,1,1.68,2,3.37,2.93,5.09" transform="translate(0 0)"/>
    <path class="c" d="M122.73,256.63a15.94,15.94,0,0,1,1.85.6,8.5,8.5,0,0,1-3-5.45,6.25,6.25,0,0,1,4.69-7,5.66,5.66,0,0,1,3.7.55,4.3,4.3,0,0,0,.94.38,5,5,0,0,0-4.38-1.84,7.29,7.29,0,0,0-6.44,6.38,9.28,9.28,0,0,0,.49,4.34,2.74,2.74,0,0,0,2.1,2" transform="translate(0 0)"/>
    <path class="c" d="M123.59,250.06a9.19,9.19,0,0,0,1,5.23c.21.41.49.78.71,1.19,1,1.81,2.88,1.74,4.57,2.19-3.54-1.83-5.42-4.85-6.33-8.61" transform="translate(0 0)"/>
    <path class="d" d="M138.88,260.13c-8-8-15.3-12.93-23-18.1-4.21-2.82-8.56-5.74-13.35-9.37a91.39,91.39,0,0,1-29.25-36,70.16,70.16,0,0,1-6.28-29,497.67,497.67,0,0,1,143.76-.38,70.07,70.07,0,0,1-6.28,29.34,91.27,91.27,0,0,1-29.21,35.94c-4.83,3.66-9.18,6.58-13.39,9.4-7.7,5.17-15,10.09-23,18.1" transform="translate(0 0)"/>
    <path class="c" d="M138.88,261.73l-.8-.8c-7.9-7.94-15.15-12.81-22.83-18-4.21-2.83-8.56-5.75-13.4-9.42a92.31,92.31,0,0,1-29.59-36.41,71.19,71.19,0,0,1-6.39-29.41v-1l1-.14a498.54,498.54,0,0,1,144.09-.39l1,.14v1a71.06,71.06,0,0,1-6.39,29.81,92.28,92.28,0,0,1-29.56,36.39c-4.88,3.7-9.23,6.62-13.43,9.44-7.68,5.15-14.93,10-22.83,18Zm-70.76-93a69.48,69.48,0,0,0,6.19,27.53,90.21,90.21,0,0,0,28.89,35.52c4.8,3.64,9.12,6.54,13.31,9.35,7.51,5,14.62,9.81,22.37,17.44,7.75-7.63,14.86-12.4,22.37-17.44,4.18-2.81,8.5-5.7,13.34-9.37a90.26,90.26,0,0,0,28.86-35.5,69.2,69.2,0,0,0,6.19-27.9,496,496,0,0,0-141.52.37" transform="translate(0 0)"/>
    <path class="c" d="M45.16,159.81l-2.33.35.62,3.93,1.33-.2a613.54,613.54,0,0,1,187.63-.51l2.29.34.85-3.89c-1.18-.19-2.37-.35-3.55-.52a617.29,617.29,0,0,0-186.84.5" transform="translate(0 0)"/>
    <path class="c" d="M51.28,88c.2-.17.41-.34.6-.53A44.32,44.32,0,0,1,57.56,83a4.81,4.81,0,0,0,1.14-1.06,11.26,11.26,0,0,1,3.95-3.31,10.84,10.84,0,0,1,5.45-1.1,6.44,6.44,0,0,0,2.71-.66,1.29,1.29,0,0,0-.26-.06,12.32,12.32,0,0,1-5.76-1.94,1.53,1.53,0,0,0-1.3-.19L58,76.07a4.08,4.08,0,0,1-.78.12,4.55,4.55,0,0,1,1.46-.81A70.78,70.78,0,0,1,66.05,73a12.2,12.2,0,0,1,4.06-.49,10.64,10.64,0,0,1,5,1.68,13.15,13.15,0,0,1,1.08.76,1.31,1.31,0,0,0,1.24.22c.44-.13.9-.2,1.45-.31-.2-.06-.32-.11-.45-.14a11.43,11.43,0,0,1-4.1-2.15,2.65,2.65,0,0,1-.38-.37,2.45,2.45,0,0,0-1.73-.87,15.15,15.15,0,0,0-1.65,0c-1.51,0-3,.11-4.52.17-.21,0-.42,0-.63,0a.41.41,0,0,0,0-.11c.23-.06.46-.14.69-.19a36.19,36.19,0,0,1,8.09-.76c.59,0,1.19,0,1.79-.09a10.42,10.42,0,0,1,7.63,2.49,10.89,10.89,0,0,1,1,.93,1.42,1.42,0,0,0,1,.43h.47l1.26-.07L87.12,74a11.76,11.76,0,0,1-3.53-2.87,3.19,3.19,0,0,1-.32-.43A1.75,1.75,0,0,0,82,69.8l-2.85-.54-2.6-.49a1.76,1.76,0,0,1-.94-.35c.32,0,.55,0,.78,0a61.56,61.56,0,0,1,7.2.68c.69.1,1.38.18,2.08.23a9.5,9.5,0,0,1,7.1,3.76c.23.28.44.58.66.88a1.43,1.43,0,0,0,1.21.62c.24,0,.47,0,.8.07-.13-.15-.2-.24-.28-.32A11.47,11.47,0,0,1,92.61,71a2.07,2.07,0,0,0-1.06-1c-1.88-.84-3.77-1.69-5.68-2.51a.77.77,0,0,1-.43-.28,1.37,1.37,0,0,1,.84.09c1.79.57,3.57,1.15,5.34,1.76a13.66,13.66,0,0,0,2.47.68c.56.09,1.11.28,1.66.42a.42.42,0,0,1,.33.27,9.16,9.16,0,0,0,1.27,2.34,15.46,15.46,0,0,0,5.3,4.86c.77.41,1.57.76,2.37,1.15a3.88,3.88,0,0,1,0,.44,2.07,2.07,0,0,1-.32-.09,47.58,47.58,0,0,0-17.62-3.34,50.3,50.3,0,0,0-7.14.42c-1.66.22-3.32.47-5,.8s-3.31.76-5,1.16a1.8,1.8,0,0,0-1,.67,11.64,11.64,0,0,1-8.74,4.45,6,6,0,0,1-.85,0,2,2,0,0,0-1.21.35c-2,1.3-4,2.6-6,3.93a2.68,2.68,0,0,1-1,.53l0-.08" transform="translate(0 0)"/>
    <path class="c" d="M180.34,82.23a3.88,3.88,0,0,1,1.17,3.87,3.72,3.72,0,0,1-.2.59c.22.06.45.11.66.18a4.57,4.57,0,0,0,.42-2.59,5.27,5.27,0,0,0-3.23-4.17,1.71,1.71,0,0,0-1.64,0c-.26.13-.54.23-.8.34a1.51,1.51,0,0,0-.26.15l.48.05a5.5,5.5,0,0,1,3.4,1.55" transform="translate(0 0)"/>
    <path class="c" d="M99.49,86.64l.53,0h.2a3.86,3.86,0,0,1,.49-3.84,5.3,5.3,0,0,1,3.64-2.07c.22,0,.46-.06.68-.09a10.39,10.39,0,0,0-1.49-.66,1.42,1.42,0,0,0-1,.06,5.57,5.57,0,0,0-2.34,1.71,4.58,4.58,0,0,0-.81,4.8l0,.11" transform="translate(0 0)"/>
    <path class="c" d="M132.41,69.78,133,69a16.8,16.8,0,0,1,4.56-4.07c.55-.35,1.13-.66,1.69-1a1.62,1.62,0,0,1,1.61-.06,20.74,20.74,0,0,1,5.62,3.72c.49.46.91,1,1.36,1.46l.29.31.93-.32a26.49,26.49,0,0,1,6.73-1.44c1-.08,1.93-.09,2.89-.12.35,0,.7,0,1,0a.9.9,0,0,1,.88,1,21.78,21.78,0,0,1-1.07,3.87,19.55,19.55,0,0,1-2.64,4.58,7.77,7.77,0,0,1-1,.93l-2.81,2.61a3.58,3.58,0,0,1-.39.29,21.33,21.33,0,0,1-8.91,3.06,34,34,0,0,1-5.14.2,21.62,21.62,0,0,1-7.88-1.65,17.68,17.68,0,0,1-5.35-3.56,22.34,22.34,0,0,1-3.65-4.51,17.78,17.78,0,0,1-1.85-4.41.43.43,0,0,1,0-.11c-.17-.86.17-1.26,1.12-1.33a30.75,30.75,0,0,1,11,1.22l.4.1" transform="translate(0 0)"/>
    <path class="c" d="M196.09,67.28c-.13.06-.26.14-.39.19-1.84.79-3.65,1.61-5.46,2.4a2.74,2.74,0,0,0-1.42,1.3,10.44,10.44,0,0,1-2.44,3.18c-.08.07-.14.16-.25.28.88,0,1.64,0,2.13-.83A10,10,0,0,1,190.92,71a9.72,9.72,0,0,1,4.55-1.67c1.64-.18,3.27-.4,4.92-.57s3.25-.27,4.88-.37a3.31,3.31,0,0,1,.61,0,.61.61,0,0,1-.44.24c-.37.09-.74.16-1.11.22-1.5.28-3,.55-4.47.85a6.4,6.4,0,0,0-.63.14,1.63,1.63,0,0,0-.87.62,11,11,0,0,1-3.83,3.38,1,1,0,0,0-.32.27c.56,0,1.11,0,1.67,0a1.34,1.34,0,0,0,1-.43,11.24,11.24,0,0,1,3.84-2.67,10.72,10.72,0,0,1,5.31-.7,23,23,0,0,0,2.62,0,35.16,35.16,0,0,1,6.69.75l.79.19a.87.87,0,0,1-.65.17c-1.72-.08-3.45-.17-5.17-.22a7.58,7.58,0,0,0-1.17,0,2.25,2.25,0,0,0-1.46.7,9.05,9.05,0,0,1-3,2c-.56.25-1.16.43-1.75.65a.51.51,0,0,0-.24.14l.35.07c.34.07.69.11,1,.21A1.36,1.36,0,0,0,205.3,75a18.61,18.61,0,0,1,1.93-1.24,10.23,10.23,0,0,1,5.64-1.2,14.71,14.71,0,0,1,3,.59c1.48.43,3,.83,4.42,1.31,1.1.36,2.18.78,3.26,1.2a3,3,0,0,1,.81.55,4.51,4.51,0,0,1-.53-.07c-.55-.12-1.11-.26-1.66-.4L218,74.69a1.49,1.49,0,0,0-1.22.17,12.36,12.36,0,0,1-5.54,2,2.64,2.64,0,0,0-.49.08,6,6,0,0,0,2.65.65,12.27,12.27,0,0,1,3.25.3,10.65,10.65,0,0,1,5.22,3c.37.39.71.8,1,1.22a4.41,4.41,0,0,0,.92.86,43.44,43.44,0,0,1,5.82,4.6l.51.5a.41.41,0,0,1-.4-.09l-2.16-1.43q-2.18-1.44-4.37-2.86a1.89,1.89,0,0,0-1.13-.33,13.36,13.36,0,0,1-3.92-.55,12.36,12.36,0,0,1-5.77-4,1.57,1.57,0,0,0-.87-.58c-.89-.24-1.77-.49-2.67-.7a63.44,63.44,0,0,0-6.69-1.23,52.25,52.25,0,0,0-21.38,1.45c-1.33.39-2.61.89-3.9,1.35l-.43.15c0-.18,0-.32,0-.46.47-.22.91-.43,1.37-.63a15.09,15.09,0,0,0,5.58-4.38A13.68,13.68,0,0,0,185.21,71a1.34,1.34,0,0,0,.2-.44c0-.3.23-.43.52-.5l2-.46a10.18,10.18,0,0,0,1.12-.28c2-.69,4.06-1.37,6.11-2a2.17,2.17,0,0,1,.91-.17l.06.11" transform="translate(0 0)"/>
    <path class="c" d="M159.57,65.62l-1.22.06a31.92,31.92,0,0,0-5.94.61c-1.08.24-2.14.53-3.19.84a.74.74,0,0,1-.87-.19c-.33-.35-.69-.65-1-1a15.16,15.16,0,0,0-2.89-2.19.45.45,0,0,1-.25-.53,18.41,18.41,0,0,1,1.22-4.08,11.67,11.67,0,0,1,5.37-5.7,12.48,12.48,0,0,1,5.74-1.36,1.22,1.22,0,0,1,1.17.6,16.42,16.42,0,0,1,2.5,7.53,14.88,14.88,0,0,1-.42,4.56c-.07.28-.13.55-.2.84" transform="translate(0 0)"/>
    <path class="c" d="M136.27,63.54l-.37.28c-.81.64-1.64,1.26-2.4,1.93a19,19,0,0,0-1.51,1.6.76.76,0,0,1-.86.27,41.31,41.31,0,0,0-4.7-.85,30.18,30.18,0,0,0-4.46-.12l-.51,0a.35.35,0,0,1-.42-.27,18.62,18.62,0,0,1-1-3.11,15.62,15.62,0,0,1,1.65-9.59,1.24,1.24,0,0,1,1.19-.72,12,12,0,0,1,8.78,3A12.32,12.32,0,0,1,135,60.5c.35.88.75,1.74,1.13,2.61.06.13.11.27.17.43" transform="translate(0 0)"/>
    <path class="c" d="M158.12,78.19c.55-.83,1.11-1.62,1.62-2.45a18.19,18.19,0,0,0,2.36-5.92c.05-.24.11-.49.17-.74a2.42,2.42,0,0,0-.9-2.68l-.11-.1c.21-1,.42-2,.63-2.95.48,0,1,0,1.4.1a20.55,20.55,0,0,1,4.56,1.32,1,1,0,0,1,.68.83,14.89,14.89,0,0,1,.12,5.07c-.07.49-.22,1-.33,1.44l-.09.4L169,73a19.62,19.62,0,0,1,5,4.26c.27.32.54.65.84,1a.78.78,0,0,1-.27,1.31,17.12,17.12,0,0,1-4.93,1.63c-.71.1-1.42.15-2.14.22a1,1,0,0,1-.24,0c-1.24-.17-2.47-.31-3.7-.5a6.44,6.44,0,0,1-1.35-.37,15.06,15.06,0,0,1-4-2.18l-.14-.11" transform="translate(0 0)"/>
    <path class="c" d="M113.3,72.5c-.13-.59-.29-1.16-.38-1.73a14.24,14.24,0,0,1,0-4.83c0-.13,0-.27.07-.4a1,1,0,0,1,.65-.76,20.07,20.07,0,0,1,4.46-1.31h.09c.39,1.23.78,2.47,1.18,3.72l-.21.17a2.41,2.41,0,0,0-1,2.64,17.89,17.89,0,0,0,3,6.47c.46.64,1,1.23,1.47,1.85.06.08.13.16.24.28-.45.28-.87.57-1.31.82a14.26,14.26,0,0,1-3,1.32,8.85,8.85,0,0,1-1.27.21c-.91.12-1.83.22-2.75.35a6.85,6.85,0,0,1-1.81-.06,16,16,0,0,1-5.89-1.81.69.69,0,0,1-.24-1.12,22.61,22.61,0,0,1,5-4.75c.44-.29.9-.57,1.35-.85l.31-.21" transform="translate(0 0)"/>
    <path class="c" d="M142.34,62.57a6.54,6.54,0,0,0-2.24-.69,5,5,0,0,0-2.17.7c-.08-.19-.16-.36-.22-.53a26.69,26.69,0,0,0-2.19-4.54,14.55,14.55,0,0,0-2.88-3.15,2.8,2.8,0,0,0-.31-.28c-.31-.2-.32-.41-.19-.72A14.66,14.66,0,0,1,134.31,50a18.34,18.34,0,0,1,4.62-3.88,1.1,1.1,0,0,1,1.17,0,19.28,19.28,0,0,1,6.63,5.94c.2.33.38.67.56,1s.16.33-.12.58a14.07,14.07,0,0,0-3.12,3.88,16.75,16.75,0,0,0-1.51,4.18c-.06.26-.13.52-.2.82" transform="translate(0 0)"/>
    <path class="c" d="M176.12,77.44c-.43-.48-.86-1-1.31-1.46a21,21,0,0,0-4.58-3.86c-.24-.15-.34-.3-.27-.56s.09-.56.15-.83a11.35,11.35,0,0,0,.18-2.91.47.47,0,0,1,.35-.52,15.2,15.2,0,0,1,4.23-1.25,10.18,10.18,0,0,1,7,1.55,8.8,8.8,0,0,1,2,1.79.85.85,0,0,1,.12,1,14.13,14.13,0,0,1-6.61,6.48l-1.13.52h-.11" transform="translate(0 0)"/>
    <path class="c" d="M105.41,77.44a14.27,14.27,0,0,1-7.74-6.83c0-.08-.09-.17-.13-.25a.78.78,0,0,1,.12-.94,8.87,8.87,0,0,1,3.9-2.81,11,11,0,0,1,7.46,0c.66.22,1.3.51,2,.76a.35.35,0,0,1,.28.39c0,.26,0,.51,0,.76a12.62,12.62,0,0,0,.33,2.94c.07.47.09.47-.32.73a22.17,22.17,0,0,0-4.68,4l-1.15,1.3" transform="translate(0 0)"/>
    <path class="c" d="M155.55,50.35a15.3,15.3,0,0,0-6.42,2,4.45,4.45,0,0,1-.32-.48,19,19,0,0,0-3.59-4.29c-.82-.74-1.77-1.37-2.67-2-.09-.07-.2-.12-.29-.19s-.23-.21-.06-.44a12.53,12.53,0,0,1,4.9-4c.64-.29,1.32-.54,2-.79a1.46,1.46,0,0,1,1.44.19,11.68,11.68,0,0,1,3.8,4.44,11.93,11.93,0,0,1,1.18,4.76c0,.26,0,.53,0,.82" transform="translate(0 0)"/>
    <path class="c" d="M166.66,62.81A18.62,18.62,0,0,0,162,62a17.94,17.94,0,0,0-2.25-9.3c.18-.13.35-.28.54-.4a16,16,0,0,1,6.14-2.34l.72-.11a1.17,1.17,0,0,1,1.21.47,8.15,8.15,0,0,1,1.42,2.7,7.87,7.87,0,0,1-.22,5,9.24,9.24,0,0,1-1.34,2.54c-.53.73-1.05,1.47-1.59,2.23" transform="translate(0 0)"/>
    <path class="c" d="M113.46,63.33a4.11,4.11,0,0,0-1.53,1,4.65,4.65,0,0,0-.53,1.6c-.4-.15-.77-.28-1.14-.43a13.81,13.81,0,0,0-6.32-.89c-.3,0-.61.08-.91.14s-.39.07-.55-.24a17.85,17.85,0,0,1-.93-1.92,12.69,12.69,0,0,1-.8-3.43c0-.6,0-1.2,0-1.8a.7.7,0,0,1,.53-.69,16.87,16.87,0,0,1,7.39-1c.4,0,.79.12,1.2.19a13.44,13.44,0,0,0,1.25,4,28.62,28.62,0,0,0,2.39,3.47" transform="translate(0 0)"/>
    <path class="c" d="M170.13,65.94a4.16,4.16,0,0,0-.55-1.62,4,4,0,0,0-1.5-1l.33-.44a22.32,22.32,0,0,0,2.27-3.45,11.14,11.14,0,0,0,.87-2.75c0-.25.11-.5.17-.77.17,0,.33-.09.51-.12a15.35,15.35,0,0,1,6.07.29c.64.15,1.26.38,1.89.56a.77.77,0,0,1,.66.81,13.86,13.86,0,0,1-1.39,6.37l-.45.77a.35.35,0,0,1-.43.18,13.32,13.32,0,0,0-7.35.75l-1,.37-.14,0" transform="translate(0 0)"/>
    <path class="c" d="M124.16,51.21a10.31,10.31,0,0,1,.14-3.8A12.61,12.61,0,0,1,128.08,41a1.16,1.16,0,0,1,1.25-.29,17.83,17.83,0,0,1,3.49,1.5,14.3,14.3,0,0,1,4,3.15A21.25,21.25,0,0,0,133,48.69a17.06,17.06,0,0,0-2.68,4.12,15.38,15.38,0,0,0-6.12-1.6" transform="translate(0 0)"/>
    <path class="c" d="M131.83,39.64l.72-1.08a15.23,15.23,0,0,1,5.74-5,1.5,1.5,0,0,1,1.48,0,19.83,19.83,0,0,1,4,2.59,14.26,14.26,0,0,1,2.75,3.06,14.14,14.14,0,0,0-7.1,6.46,16.78,16.78,0,0,0-7.64-6" transform="translate(0 0)"/>
    <path class="c" d="M120.84,52a3.91,3.91,0,0,0-1,1.36,17.59,17.59,0,0,0-1.78,8.39,1.27,1.27,0,0,1,0,.2s0,0,0,.05l-3.19.74a.8.8,0,0,1-.13-.13c-.62-.88-1.31-1.74-1.86-2.65-1.67-2.75-2.1-5.6-.51-8.57a11.71,11.71,0,0,1,.82-1.21,1.06,1.06,0,0,1,1.12-.4c.86.16,1.72.31,2.57.53a14.75,14.75,0,0,1,3.7,1.54l.23.15" transform="translate(0 0)"/>
    <path class="c" d="M99.15,58.08a14.9,14.9,0,0,0,2,7.21,11.41,11.41,0,0,0-4.26,2.81,14.46,14.46,0,0,1-2.35-1.88,9.35,9.35,0,0,1-2.44-4.33A8.23,8.23,0,0,1,92,60.78a.76.76,0,0,1,.41-.76,12.09,12.09,0,0,1,3.34-1.54,11.85,11.85,0,0,1,3.19-.43l.26,0" transform="translate(0 0)"/>
    <path class="c" d="M182.39,58.08a10.48,10.48,0,0,1,2.9.27,12.86,12.86,0,0,1,3.65,1.51,1.12,1.12,0,0,1,.63,1.26,8.91,8.91,0,0,1-1.79,4.22,12.63,12.63,0,0,1-3.12,2.77,11.23,11.23,0,0,0-4.27-2.8,15.06,15.06,0,0,0,2-7.23" transform="translate(0 0)"/>
    <path class="c" d="M180,55.13a17.66,17.66,0,0,0-8.28-.63c-.18-.75-.31-1.49-.55-2.2s-.62-1.4-1-2.14a4.5,4.5,0,0,1,.37-.27A11.76,11.76,0,0,1,177.22,48c.79,0,1.59.12,2.39.19a.77.77,0,0,1,.75.62,11,11,0,0,1,.33,2.47,10,10,0,0,1-.51,3.43c0,.12-.09.23-.16.39" transform="translate(0 0)"/>
    <path class="c" d="M111.37,50.19a9.44,9.44,0,0,0-1.49,4.3,19.53,19.53,0,0,0-4.18-.19,21.14,21.14,0,0,0-4.18.81,7.44,7.44,0,0,1-.28-.74,10.82,10.82,0,0,1-.08-5.45c.13-.53.27-.63.89-.73a13,13,0,0,1,7.66,1,8.67,8.67,0,0,1,1.66,1" transform="translate(0 0)"/>
    <path class="c" d="M182.17,49.89a14.76,14.76,0,0,1,7.29,1.2,1,1,0,0,1,.64.91,12.11,12.11,0,0,1-.19,3,9.9,9.9,0,0,1-1.17,3.2A13.17,13.17,0,0,0,181,56.81a11.18,11.18,0,0,0,1.22-6.92" transform="translate(0 0)"/>
    <path class="c" d="M92.8,58.14a9.12,9.12,0,0,1-.87-2,12.13,12.13,0,0,1-.48-4.2.91.91,0,0,1,.63-.87,14.39,14.39,0,0,1,6.25-1.25l.92,0,.12,0a11,11,0,0,0,1.23,6.88,13.19,13.19,0,0,0-7.8,1.35" transform="translate(0 0)"/>
    <path class="c" d="M68,87.22l.77-.46c1.69-.93,3.38-1.85,5.1-2.73a2.44,2.44,0,0,0,1.21-1.24,10.58,10.58,0,0,1,2.44-3.51,10.35,10.35,0,0,1,4.26-2.37,12.82,12.82,0,0,1,2.6-.49c.21,0,.43,0,.66,0a.65.65,0,0,1,0,.17A12.34,12.34,0,0,1,82,81a10.53,10.53,0,0,1-4.46,2.4,11.27,11.27,0,0,0-2.43,1c-1.18.62-2.42,1.09-3.65,1.59L68.8,87.13a2.11,2.11,0,0,1-.77.21.56.56,0,0,1,0-.12" transform="translate(0 0)"/>
    <path class="c" d="M196.48,76.45a4.55,4.55,0,0,1,1.53.08,11.69,11.69,0,0,1,4.76,1.77,10.18,10.18,0,0,1,3.49,4.06,6.36,6.36,0,0,1,.28.59,2,2,0,0,0,1,1c1.59.82,3.16,1.67,4.73,2.53.34.18.68.38,1,.58a3.68,3.68,0,0,1,.32.23.88.88,0,0,1-.29,0c-.44-.17-.89-.33-1.33-.51l-4.18-1.72c-.26-.11-.52-.23-.76-.36a22.79,22.79,0,0,0-3.68-1.52,9.92,9.92,0,0,1-5.48-4.14c-.47-.72-.84-1.51-1.25-2.26a3.77,3.77,0,0,1-.15-.38" transform="translate(0 0)"/>
    <path class="c" d="M59.67,89.08l2-1.15q2.2-1.23,4.42-2.43a1.47,1.47,0,0,0,.69-.8,12.24,12.24,0,0,1,1.6-3,10.09,10.09,0,0,1,4.34-3.26,13.74,13.74,0,0,1,2.93-.82l.47,0c0,.08,0,.12,0,.16a10.71,10.71,0,0,1-7.09,7.6,26.89,26.89,0,0,0-2.61,1.06c-1.48.71-3,1.3-4.53,1.92L60.28,89a.72.72,0,0,1-.61,0" transform="translate(0 0)"/>
    <path class="c" d="M221.73,89.19a2.9,2.9,0,0,1-.42-.12c-1.5-.62-3-1.22-4.51-1.84-.94-.39-1.84-.85-2.76-1.25a11.54,11.54,0,0,0-1.38-.53,10.08,10.08,0,0,1-5.19-3.57,12.5,12.5,0,0,1-2.05-4,1.09,1.09,0,0,1,0-.22,2.35,2.35,0,0,1,.26,0,12.29,12.29,0,0,1,5.62,2.24,10.24,10.24,0,0,1,3.1,3.95c.13.29.26.57.37.87a1.52,1.52,0,0,0,.76.84q2.5,1.34,5,2.73c.45.25.89.53,1.33.79l-.06.11" transform="translate(0 0)"/>
    <path class="c" d="M206.09,85.91c-.15.13-.31.06-.44,0-.73-.21-1.45-.42-2.17-.65L200,84.16c-.75-.24-1.47-.54-2.21-.77s-1.39-.35-2.07-.54a10.45,10.45,0,0,1-5.56-3.68c-.51-.64-.92-1.36-1.37-2a4.11,4.11,0,0,1-.23-.5c.47,0,.86,0,1.25,0a11.71,11.71,0,0,1,4.68,1.13,9.69,9.69,0,0,1,3.67,3.09c.37.51.7,1,1,1.59a1.78,1.78,0,0,0,.85.75q2.81,1.17,5.57,2.41c.17.07.41.08.51.3" transform="translate(0 0)"/>
    <path class="c" d="M75.44,85.86a2.07,2.07,0,0,1,.25-.15c1.25-.55,2.5-1.09,3.76-1.62.69-.3,1.38-.61,2.08-.9a1.68,1.68,0,0,0,.84-.76,13.07,13.07,0,0,1,1.93-2.66A10.07,10.07,0,0,1,89.1,77a13.83,13.83,0,0,1,3.62-.41,1.32,1.32,0,0,1,.24,0,1.58,1.58,0,0,1-.11.31,11.79,11.79,0,0,1-4.39,4.77,13,13,0,0,1-3.62,1.38c-.8.19-1.58.46-2.36.71-1,.32-2,.67-3,1l-3,1c-.27.08-.54.14-.81.2a.63.63,0,0,1-.19,0l0-.07" transform="translate(0 0)"/>
    <path class="c" d="M101.14,78.5c-.39.47-.72.9-1.09,1.3a11.43,11.43,0,0,1-4.43,3,9.65,9.65,0,0,1-3.79.62,10.29,10.29,0,0,0-3.4.48c-1.27.38-2.54.72-3.81,1.09-.49.14-1,.26-1.49.38-.14,0-.28,0-.44,0,0-.22.16-.23.27-.27,1.32-.53,2.65-1.05,4-1.57.71-.28,1.41-.59,2.12-.86a2.23,2.23,0,0,0,.93-.67,11.35,11.35,0,0,1,2.69-2.38,10.4,10.4,0,0,1,6.07-1.53c.56,0,1.11.09,1.67.16.21,0,.43.1.71.17" transform="translate(0 0)"/>
    <path class="c" d="M198.83,85.46a2,2,0,0,1-.43,0c-.65-.16-1.29-.32-1.93-.51-1.41-.4-2.8-.81-4.21-1.19a7.6,7.6,0,0,0-2.23-.25,10.67,10.67,0,0,1-8.52-3.62,7.15,7.15,0,0,1-1-1.33,5.5,5.5,0,0,1,1.49-.27,10.66,10.66,0,0,1,6.87,1.46,10.5,10.5,0,0,1,2.56,2.22,3.06,3.06,0,0,0,1.36,1c1.95.74,3.89,1.52,5.81,2.31a3,3,0,0,1,.31.15l0,.12" transform="translate(0 0)"/>
    <path class="c" d="M164.91,84.47a8.3,8.3,0,0,1,.57-1.35,1,1,0,0,1,1-.56,12,12,0,0,0,3.28-.11l.24,0,.13,0-.32.2c-.76.48-1.5,1-2.27,1.44a16,16,0,0,1-1.51.71.25.25,0,0,1-.19,0c-.29-.1-.57-.22-.89-.35" transform="translate(0 0)"/>
    <path class="c" d="M111.53,82.41l.53.06c.65.06,1.31.15,2,.18a5.45,5.45,0,0,0,1-.11.74.74,0,0,1,.5.1,1.57,1.57,0,0,1,.78.93,9.55,9.55,0,0,0,.35.89c-.3.12-.58.25-.87.35a.43.43,0,0,1-.27,0,8.23,8.23,0,0,1-1.71-.84c-.73-.51-1.5-1-2.25-1.44v-.08" transform="translate(0 0)"/>
    <path class="c" d="M108.31,82.15a8.42,8.42,0,0,0-6.63,1.46,1.48,1.48,0,0,1,.13-.21,6.23,6.23,0,0,1,2.91-1.93c.17,0,.35-.09.52-.15a2.23,2.23,0,0,1,1.74.05c.46.21.9.46,1.34.69v.09" transform="translate(0 0)"/>
    <path class="c" d="M173.26,82c.46-.23.91-.48,1.39-.69a2.31,2.31,0,0,1,1.62,0,7.58,7.58,0,0,1,2.28,1,4,4,0,0,1,1.25,1.29l-.34-.2a9.2,9.2,0,0,0-3-1.29,7.73,7.73,0,0,0-2.67-.08l-.48.07,0-.09" transform="translate(0 0)"/>
    <path class="c" d="M245.72,96.19a613.43,613.43,0,0,0-210.94,0l-.69-3.92a617.37,617.37,0,0,1,212.31,0c-.23,1.31-.46,2.61-.68,3.92" transform="translate(0 0)"/>
    <path class="e" d="M110.59,200.63l.32.08a.89.89,0,0,1,.73-.46,3.44,3.44,0,0,0,.94,1.16,2.24,2.24,0,0,0-1,1.59,3,3,0,0,0,.64,2.62l.36.29-.08-.45a1.5,1.5,0,0,1,.72-1.31,1.54,1.54,0,0,0,1.59.68,7.74,7.74,0,0,1,1.19-.13,2.95,2.95,0,0,1,2.88,2.4.74.74,0,0,1-.18.57l-.23.24.33.05c1.14.15,1.81-.26,2-1.21a2.78,2.78,0,0,0-.24-1.59,2.73,2.73,0,0,1,.5,0,7.91,7.91,0,0,1,2.09.42,8.17,8.17,0,0,0,2.3.46,3,3,0,0,0,2.12-.84c.78,1.72,2.64,2.46,4.44,3.18,2.55,1,4.95,2,4.59,5.49-.61-.15-1.35-.39-2.13-.65a16.82,16.82,0,0,0-4.92-1.14,4.21,4.21,0,0,0-1,.12h0l-.16,0a3.72,3.72,0,0,0-.5.2,4.28,4.28,0,0,0-.42.26l-.27.16c-.85.5-1.8,1.07-2.49.81a1.52,1.52,0,0,1-.79-1l-.16-.49-.17.48c-.38,1.1.37,2.47,1.23,3.29a4.11,4.11,0,0,0,1.06.73,15.4,15.4,0,0,0,3.33,7.26c-1.72-.28-3-2.23-4-3.81l-.21-.32a3.08,3.08,0,0,0-1.53-1.51,2.25,2.25,0,0,0-.64-.09,1.39,1.39,0,0,0-1.39.79,2,2,0,0,0-.42,0,2.13,2.13,0,0,0-2.09,1.75V221l.28-.24a.93.93,0,0,1,.59-.19.83.83,0,0,1,.63.25,1.49,1.49,0,0,0,0,1,2,2,0,0,0,.34.61,2.17,2.17,0,0,0-1.55.81,2.85,2.85,0,0,0-.69,2.15,2.89,2.89,0,0,0-.11,2.52l.29.51,0-.59a1.31,1.31,0,0,1,.56-1,1.11,1.11,0,0,0,1,.47,2.09,2.09,0,0,0,.6-.1,2.53,2.53,0,0,0-.16,1.91,2.39,2.39,0,0,0,.32,2,1.61,1.61,0,0,0,1.33.61h.7l-.57-.32a.81.81,0,0,1-.35-.8.84.84,0,0,1,.43-.71,2.45,2.45,0,0,0,.9.18,4.41,4.41,0,0,0,2.25-.89,7.41,7.41,0,0,1,4.22-1.41l1.13,0,1.06,0a3.29,3.29,0,0,0,2.59-.78,3.46,3.46,0,0,0-.29-3.84,1.36,1.36,0,0,1-.12-1.86c.43-.74,2-1.15,3.06-1.19a7.22,7.22,0,0,0-.32,5.25,10.11,10.11,0,0,0,.5,1.29c.56,1.24,1.08,2.42,0,3.55l-.29.3h.41a4.63,4.63,0,0,0,3.7-2.13,10.09,10.09,0,0,0,4,.84h.15c.79,0,1.88,0,2.36.54a1.3,1.3,0,0,1,.25,1c-.09.79-.68,1.29-1.81,1.53a5.64,5.64,0,0,1-1.21.12,15.93,15.93,0,0,1-1.81-.14c-.61-.06-1.23-.13-1.83-.13a5.75,5.75,0,0,0-1.57.2,2.79,2.79,0,0,0-2.28,2.28,2.62,2.62,0,0,0-.5,2l.34,0a1.7,1.7,0,0,1,.75-1,4.14,4.14,0,0,0,1.78.37,2.73,2.73,0,0,0,.17,2.08,4.48,4.48,0,0,0,.32,2.65l.19.45.13-.47a5.36,5.36,0,0,0,.14-.54,4.22,4.22,0,0,1,.74-1.8,2.54,2.54,0,0,0,1.05-.08,2.32,2.32,0,0,0,.21,2,2.13,2.13,0,0,0,.78,2.38l.27-.19a1.48,1.48,0,0,1-.07-1.19c.31-.73,1.39-1.13,2.43-1.52a6,6,0,0,0,2-1,8.07,8.07,0,0,0,1.59-2.91,6.84,6.84,0,0,1,1.64-2.87c3.41-.87,3.63-3.63,3.43-4.53-.38-1.78-1.87-2.17-3.31-2.54a8,8,0,0,1-2-.71,2.84,2.84,0,0,1-1.3-2.29,3.62,3.62,0,0,1,1-2.79,6.13,6.13,0,0,0,4,3.87,15.06,15.06,0,0,0,3,.78c1.45.21,2.71.58,3.42,3l.16.56.17-.56a5.73,5.73,0,0,0-1-4.61,8.23,8.23,0,0,0,2.52-6c.07-4.24-2.44-8.72-4.87-13-.7-1.27-1.39-2.49-2-3.68-.16-.32-.32-.63-.47-.95-.33-1.31-.38-3.88,1.48-4.13a1.11,1.11,0,0,1,1.05.43,1.67,1.67,0,0,0-.09-.7,1.52,1.52,0,0,0-.91-1,2.52,2.52,0,0,0-2.07.34,2.9,2.9,0,0,0-1,.91c0-.15-.08-.29-.11-.44a10.73,10.73,0,0,1,0-5.76c.61-2,2.33-4.05,4.34-4.05a3.36,3.36,0,0,1,.63.06,1.89,1.89,0,0,1,1.56,2.15,1.72,1.72,0,0,1-1.53,1.69,1.44,1.44,0,0,1-.4-.06l-.29-.07.08.28a1.54,1.54,0,0,0,1.59,1h.17c-.12,2.69.56,5.76,2.87,6.51l.15-.3c-.68-.5-.43-1,0-1.82a5.64,5.64,0,0,0,.45-1,1.7,1.7,0,0,0,1.76.55l.32,0-.23-.24c-.89-.92-.67-2.52-.46-4.07a9.58,9.58,0,0,0,.13-2.51,5.57,5.57,0,0,0-5.62-5.14,6.83,6.83,0,0,0-3.92,1.23c-6.44,5.53-3.64,14.8-.17,21.6l.11.21c.33.64.69,1.35,1.06,2.12a2.88,2.88,0,0,0-2.54.45,2.69,2.69,0,0,0-1,2.56,1.62,1.62,0,0,0,1.27,1.28l.58.14-.41-.43a1.14,1.14,0,0,1-.24-1.33,1.25,1.25,0,0,1,1.33-.67,4.66,4.66,0,0,1,2.62,1.73c.94,2.58,1.47,5.29.69,7.43a3,3,0,0,1-2.8,2.23,4.62,4.62,0,0,1-4-3.16,18.56,18.56,0,0,1-.57-2.07,13,13,0,0,0-1.07-3.26,13.3,13.3,0,0,0-1.66-2.21c-.42-.5-.86-1-1.23-1.55-1.69-2.43-2-5-2.35-7.68l-.15-1.16a2.27,2.27,0,0,0,1.86.94,1.81,1.81,0,0,0,1.68-.91,1.27,1.27,0,0,0-.33-1.42l-.41-.47.11.61a.76.76,0,0,1-.06.63c-.15.18-.52,0-.74-.28a1.73,1.73,0,0,1-.11-1.57,11.55,11.55,0,0,0,.7-3.18,2.1,2.1,0,0,0,1.75,1.05,1.5,1.5,0,0,0,1.48-1.3l.07-.29-.29.09c-.5.16-.83.15-1,0-.31-.37-.14-1.36,0-2.42a11.4,11.4,0,0,0,.24-2.63,2.1,2.1,0,0,0,1.66.69l.31,0-.19-.25c-.54-.71-.39-1.65-.22-2.75a7.47,7.47,0,0,0,.05-2.91,2.89,2.89,0,0,0,1.63.46,4,4,0,0,0,1.43-.27l.25-.09-.18-.19a4.83,4.83,0,0,1-1-2.19,9.36,9.36,0,0,0-.48-1.44,3.08,3.08,0,0,0,1.29.28,2.68,2.68,0,0,0,2.14-1,2.12,2.12,0,0,0,.31-1.94l-.11-.4-.2.36c-.28.46-.48.52-.6.52a1.7,1.7,0,0,1-.82-.44,5.21,5.21,0,0,0-.94-.58,2,2,0,0,0,1.38-1.71,2.45,2.45,0,0,0-1.28-2.61l-.36-.13.14.36a1.17,1.17,0,0,1-.07,1.18,1.85,1.85,0,0,1-1.54.71,2.12,2.12,0,0,1-.83-.16c-2.8-1.61-5.06-2.48-6.72-2.59a8.69,8.69,0,0,0-2.46.2,6.59,6.59,0,0,1-1.28.16,10.45,10.45,0,0,1-4.2-1.3l0,0H136a1.79,1.79,0,0,0-1.15,2.06,1.82,1.82,0,0,0-.57,1.43,1.64,1.64,0,0,0,.36.78c0,.51-.06.82-.08,1.19,0,.2,0,.42,0,.71l0,.52.34-.39c.22-.25.44-.48.66-.71l.31-.32c.25.17.52.33.8.5,1.44.9,2.81,1.75,2.27,3.06a5.77,5.77,0,0,0-4.16-1.5,8.09,8.09,0,0,0-1.62.16,4.28,4.28,0,0,1-.81.07c-.37,0-1.26-.05-1.54-.57s0-1,.47-1.75l.21-.32-.38.06a2.58,2.58,0,0,0-2.47,2.16,1.94,1.94,0,0,0,1.4,2,4.34,4.34,0,0,0,1.38.21,12.49,12.49,0,0,0,2.21-.28l.63-.12c0,.2-.07.4-.09.61a1.34,1.34,0,0,0-.62.91,1.77,1.77,0,0,0,.38,1.67,2,2,0,0,0-.09,2.4l.2.31.11-.35c.24-.78,1.92-1.13,3.37-1.13a6.6,6.6,0,0,1,1.21.1.88.88,0,0,1-.1.81,2.62,2.62,0,0,1-2.09.75,2.78,2.78,0,0,1-1.84-.54l-.24-.22-.05.33a2.2,2.2,0,0,0,.81,2.14,6.68,6.68,0,0,1-1.32.15,2.09,2.09,0,0,1-2-.94l-.15-.26-.15.27a2,2,0,0,0-.31,1.56,1.18,1.18,0,0,0,.2.37,5.78,5.78,0,0,1-3.44-2.31,7.49,7.49,0,0,1-1.37-5.87c.71-3.26.94-7.33-2-8.2a4.1,4.1,0,0,0-1.41-.27,1.72,1.72,0,0,0-1.73.9l-.14.33.35-.1.16,0a1.28,1.28,0,0,1,1.1.67.39.39,0,0,1-.2.43,2.47,2.47,0,0,0-2-.86,2.59,2.59,0,0,0-2.75,2.25v.56l.33-.46a.87.87,0,0,1,.73-.37.72.72,0,0,1,.6.28.48.48,0,0,1,0,.41,2.87,2.87,0,0,0-2.79,1.14,2.56,2.56,0,0,0-.49,2.24l.15.51.18-.49a1.52,1.52,0,0,1,1.37-1.1h0a2.87,2.87,0,0,0,1.06,1.47,3.24,3.24,0,0,1,.89,1.05,6.5,6.5,0,0,1,.1,3.08c-.64-.08-1.06-.7-1.43-1.25l-.29-.42-.07.41a3.51,3.51,0,0,0,2.31,3.68,14.37,14.37,0,0,0,1.8,5.4,8.69,8.69,0,0,0,1.25,1.6,5.71,5.71,0,0,1,1.47,2.2,13.51,13.51,0,0,0-.93,2.67q-.09.35-.18.66a2.73,2.73,0,0,0-.41,0,4.52,4.52,0,0,0-2.07.66,3.94,3.94,0,0,1-1.76.58,2.45,2.45,0,0,1-1.32-.43,2.22,2.22,0,0,1-.74-1.31,4.58,4.58,0,0,0-.94-1.87,3,3,0,0,0-2.21-.86c-1.22,0-2.06.6-2.13,1.53l0,.34.29-.18a.89.89,0,0,1,.45-.12,1.17,1.17,0,0,1,1,.66l.08.21a3.42,3.42,0,0,0-.71-.07,3,3,0,0,0-3,2.94m27.61-20.94a5.77,5.77,0,0,1-2.26.42,4.93,4.93,0,0,1-.55,0c-.13-.27-.25-.53-.39-.79.32,0,.64-.06,1-.06a5.36,5.36,0,0,1,2.23.46" transform="translate(0 0)"/>
    <path class="c" d="M180.15,177.93a.31.31,0,0,0,.21,0,.34.34,0,0,0,.12-.21l.14,0-.23,1.88-.13,0c0-.11,0-.18-.08-.21a.6.6,0,0,0-.25-.06l-5.18-.61a.33.33,0,0,0-.18,0s-.07.08-.08.19h-.14a2.28,2.28,0,0,1,.25-.93,2.51,2.51,0,0,1,.55-.74,3.76,3.76,0,0,1,.76-.59c.29-.17.58-.32.88-.46s.61-.27.92-.39l.87-.37a.8.8,0,0,0,.28-.19.49.49,0,0,0,.12-.31.59.59,0,0,0-.14-.44.87.87,0,0,0-.61-.26,2.25,2.25,0,0,0-.78,0,3.39,3.39,0,0,0-.66.23,2,2,0,0,0-.47.31.57.57,0,0,0-.19.28.67.67,0,0,0,0,.18l-.15.09-1-1.89.14-.07.08.07a.21.21,0,0,0,.12,0,.6.6,0,0,0,.32-.12,5.65,5.65,0,0,1,.62-.27,4.38,4.38,0,0,1,.92-.25,3.91,3.91,0,0,1,1.19,0,2.92,2.92,0,0,1,.93.26,2.81,2.81,0,0,1,.76.51,2,2,0,0,1,.49.7,1.56,1.56,0,0,1,.11.83,1.43,1.43,0,0,1-.27.73,1.85,1.85,0,0,1-.54.5,4.27,4.27,0,0,1-.71.35l-.78.27c-.26.08-.51.16-.75.25a2.42,2.42,0,0,0-.62.33Z" transform="translate(0 0)"/>
    <path class="c" d="M185.36,173.64a3.14,3.14,0,0,1,1.2.39,3.17,3.17,0,0,1,.93.78,3,3,0,0,1,.57,1.07,3,3,0,0,1,.1,1.28,2.93,2.93,0,0,1-.4,1.22,3.18,3.18,0,0,1-.8.91,3.14,3.14,0,0,1-1.09.52,3.48,3.48,0,0,1-1.25.08,3.24,3.24,0,0,1-1.19-.37,2.89,2.89,0,0,1-.94-.76,3.27,3.27,0,0,1-.58-1.07,3.2,3.2,0,0,1-.1-1.28,3.25,3.25,0,0,1,.4-1.22,3,3,0,0,1,.81-.91,3.27,3.27,0,0,1,2.34-.64M185.2,175a1.35,1.35,0,0,0-.68.07,1.37,1.37,0,0,0-.5.35,1.61,1.61,0,0,0-.32.54,2.65,2.65,0,0,0-.16.63,2.36,2.36,0,0,0,0,.65,1.7,1.7,0,0,0,.19.59,1.24,1.24,0,0,0,1,.68,1.37,1.37,0,0,0,.68-.07,1.23,1.23,0,0,0,.49-.35,1.69,1.69,0,0,0,.33-.53,2.65,2.65,0,0,0,.16-.63,2.82,2.82,0,0,0,0-.65,1.76,1.76,0,0,0-.19-.6,1.33,1.33,0,0,0-.4-.45,1.4,1.4,0,0,0-.64-.23" transform="translate(0 0)"/>
    <path class="c" d="M190.62,175.07l.14,0v.17a.11.11,0,0,0,.1.12l.13,0,.24-.06.26-.07.16,0,0-.37c0-.09,0-.15-.06-.17a.61.61,0,0,0-.14-.07v-.14l2.29.27,0,.14-.22,0c-.06,0-.09.07-.11.15l-.64,5.45a.15.15,0,0,0,.07.17l.19.07,0,.14-2.32-.28v-.14a.47.47,0,0,0,.21,0,.17.17,0,0,0,.11-.15l.44-3.71-.49.06a1.2,1.2,0,0,0-.28.06.29.29,0,0,0-.13.11.48.48,0,0,0-.05.19l-.14,0Z" transform="translate(0 0)"/>
    <path class="c" d="M201.4,177.35a.42.42,0,0,0,0-.06v-.06q0-.16-.33-.39a3.32,3.32,0,0,0-1.86-.3,1.8,1.8,0,0,0-.64.23,1.38,1.38,0,0,0-.47.46,1.62,1.62,0,0,0-.24.72,2.92,2.92,0,0,1,1-.43,3.35,3.35,0,0,1,1.06,0,3.56,3.56,0,0,1,.89.24,2.64,2.64,0,0,1,.76.5,1.89,1.89,0,0,1,.49.72,1.82,1.82,0,0,1,.11.94,1.76,1.76,0,0,1-.37.93,2.1,2.1,0,0,1-.73.56,2.89,2.89,0,0,1-.94.24,5.22,5.22,0,0,1-1,0,5.29,5.29,0,0,1-1.33-.33,2.69,2.69,0,0,1-1-.66,2.37,2.37,0,0,1-.57-1,3.58,3.58,0,0,1-.09-1.41,3,3,0,0,1,.44-1.29,2.84,2.84,0,0,1,.86-.93,3.3,3.3,0,0,1,1.16-.52,3.75,3.75,0,0,1,1.34-.07,7.89,7.89,0,0,1,.94.16l.64.2.4.17a.84.84,0,0,0,.22.09.13.13,0,0,0,.12-.05l.11-.08.12.06-1,1.51Zm-.8,2.31a.71.71,0,0,0-.29-.68,2,2,0,0,0-1.83-.22.72.72,0,0,0-.44.59.66.66,0,0,0,.29.67,1.86,1.86,0,0,0,.89.33,1.9,1.9,0,0,0,.94-.11.7.7,0,0,0,.44-.58" transform="translate(0 0)"/>
    <path class="c" d="M82,179.06a.52.52,0,0,0-.12-.19.41.41,0,0,0-.26,0l-2.17.23.12,1.08,3.74-.4a.14.14,0,0,0,.13-.08.6.6,0,0,0,0-.29l.14,0,.21,2H83.7q0-.15-.09-.18a.28.28,0,0,0-.14,0l-5.82.63v-.15a.43.43,0,0,0,.26-.1.18.18,0,0,0,0-.14L77.36,176a.19.19,0,0,0-.07-.13.5.5,0,0,0-.28-.05v-.14l5.81-.62A.15.15,0,0,0,83,175a.68.68,0,0,0,0-.27h.14l.22,2h-.14a.69.69,0,0,0-.1-.25.17.17,0,0,0-.15-.05l-3.74.4.1,1,2.17-.24a.3.3,0,0,0,.24-.1.28.28,0,0,0,.08-.2l.14,0,.2,1.82Z" transform="translate(0 0)"/>
    <path class="c" d="M85.69,178.53a1,1,0,0,0,0,.25q0,.12.24.24a2.85,2.85,0,0,0,.59.21,4.54,4.54,0,0,0,.81.14,5.53,5.53,0,0,0,.91,0A3.28,3.28,0,0,0,89.5,179a.64.64,0,0,0,.34-.64c0-.14-.14-.22-.38-.26a7.89,7.89,0,0,0-.91,0H87.38a6.2,6.2,0,0,1-1.17-.11,2.48,2.48,0,0,1-.95-.4,1.14,1.14,0,0,1-.45-.84,1.67,1.67,0,0,1,.12-.83,1.82,1.82,0,0,1,.51-.67,2.64,2.64,0,0,1,.84-.5,4,4,0,0,1,1.15-.27,6.15,6.15,0,0,1,1.12,0,8,8,0,0,1,.93.07c.27,0,.49.06.68.1a1.53,1.53,0,0,0,.39,0,.3.3,0,0,0,.18-.07.81.81,0,0,0,.12-.14l.13,0-.63,1.71-.15,0V176c0-.07-.09-.14-.25-.19a2.66,2.66,0,0,0-.6-.14c-.24,0-.51-.05-.8-.06a5.79,5.79,0,0,0-.84,0,2.2,2.2,0,0,0-1,.29c-.19.14-.28.27-.27.4a.33.33,0,0,0,.25.28,2,2,0,0,0,.56.09h1.67a8.64,8.64,0,0,1,.9.07,2.55,2.55,0,0,1,.81.23,1.63,1.63,0,0,1,.6.47,1.55,1.55,0,0,1,.3.82,1.86,1.86,0,0,1-.08.77,1.66,1.66,0,0,1-.46.73,3.09,3.09,0,0,1-1,.58,6.38,6.38,0,0,1-1.56.34,12.72,12.72,0,0,1-1.28.07,7.34,7.34,0,0,1-.92-.08l-.61-.11a1,1,0,0,0-.33-.05.14.14,0,0,0-.11.06l-.1.11h-.15l.64-2.17Z" transform="translate(0 0)"/>
    <path class="c" d="M94.6,179.83a.5.5,0,0,0,.26-.1.18.18,0,0,0,0-.14l-.46-4.36-2,.21a.17.17,0,0,0-.13.08.71.71,0,0,0,0,.27l-.13,0-.23-2.08H92a.69.69,0,0,0,.1.25.17.17,0,0,0,.15.05l5.76-.61a.2.2,0,0,0,.13-.08.58.58,0,0,0,0-.27l.14,0,.22,2.08h-.14a.73.73,0,0,0-.09-.25.17.17,0,0,0-.15,0l-2,.21.47,4.36a.16.16,0,0,0,.07.13.5.5,0,0,0,.28.05v.14l-2.4.25Z" transform="translate(0 0)"/>
    <path class="c" d="M100,173.55a.16.16,0,0,0-.07-.13.5.5,0,0,0-.28,0v-.14l3.87-.41a3.84,3.84,0,0,1,1.42.08,2.7,2.7,0,0,1,1.05.55,2.59,2.59,0,0,1,.68.91,3.73,3.73,0,0,1,.32,1.19,3.28,3.28,0,0,1-.08,1.17,2.89,2.89,0,0,1-.51,1,3.16,3.16,0,0,1-1,.8,3.55,3.55,0,0,1-1.4.4l-3.74.4v-.14a.6.6,0,0,0,.27-.1.22.22,0,0,0,0-.14Zm3.7,4.06A1.69,1.69,0,0,0,105,177a1.8,1.8,0,0,0,.28-1.26,1.84,1.84,0,0,0-.54-1.17,1.66,1.66,0,0,0-1.38-.33l-1.48.16.36,3.38Z" transform="translate(0 0)"/>
    <path class="e" d="M43.7,118.65l-.28-.25c.49-1.6,1-3.36,0-10.08-.82-5.65-1.55-7.22-3-7s-1.73,2.08-1.2,5.58l6.45,42.43c.33,2.14.89,3.15,2,3,2-.3,1.42-4.37,1-7.09-.29-2-1.22-7.56-2-9.41a6.89,6.89,0,0,0-1-1.69l.2-.24q3.07,3.23,6.1,6.49c.24,1.74.48,3.48.73,5.22.57,4.16-.07,9.41-4.46,10.06-3.56.54-5.82-2.17-6.52-6.6q-3.21-20.22-6.41-40.45c-.83-5.2-.5-9.81,4.39-10.54s6.7,2.46,7.58,8.75l.63,4.51c-1.45,2.44-2.88,4.89-4.29,7.33" transform="translate(0 0)"/>
    <path class="e" d="M56.47,123.3c1.29-.16,2.4-.3,2.63-5.28.07-1.66.15-3.32.23-5l.59-.07q1.41,11.5,2.81,23l-.58.07c-.45-1.45-.9-2.9-1.36-4.35-1.58-5.12-2.4-5-3.85-4.83q1.5,11.72,3,23.43l1.07-.14a2.09,2.09,0,0,0,1.82-1.39c.94-2.08,1.29-5.91,1.61-9l.69-6.49.58-.06q.72,9.74,1.47,19.46-6,.7-12,1.53c0-.21-.06-.43-.09-.64a2.81,2.81,0,0,0,1.29-1q-3.66-27.06-7.33-54.12A2.58,2.58,0,0,0,47.49,98c0-.19-.05-.38-.08-.57,4.28-.59,8.55-1.14,12.84-1.64q1.41,9.08,2.8,18.14l-.65.08c-.87-2.42-1.74-4.84-2.63-7.25-2.57-7.11-3.43-7.44-5.19-7.22l-1.16.15q1.53,11.82,3,23.64" transform="translate(0 0)"/>
    <path class="e" d="M80.68,142c.36,3.82-.1,9.21-5,9.72-2.19.22-4.37.46-6.56.71l-.07-.64a2.35,2.35,0,0,0,1.26-1l-6.1-54.27a2.35,2.35,0,0,0-1.55-.55l-.06-.57c2.3-.27,4.61-.52,6.91-.76,5.65-.58,6.75,4,7.19,8.65l1,10.72c.52,5.61-1.73,6.91-3,7.69,2.32.71,4.27,1.91,4.84,8q.59,6.12,1.15,12.23M68.59,98.46q1.17,11.06,2.35,22.12l.88-.09c1.88-.2,2.23-2,2-4q-.77-7.51-1.52-15c-.18-1.79-.89-3.32-2.53-3.15l-1.22.13m2.74,25.86q1.28,12,2.54,23.92c1.07-.11,3.43-.35,3-5.1q-.75-7.39-1.49-14.81c-.3-3-.9-4.34-3-4.12l-1,.11" transform="translate(0 0)"/>
    <path class="e" d="M86.46,120.14c1.3-.1,2.41-.19,2.87-5.15.15-1.66.3-3.31.46-5l.6,0q.85,11.56,1.72,23.12l-.58.05c-.38-1.47-.76-2.94-1.15-4.41-1.33-5.18-2.16-5.12-3.62-5l1.92,23.54,1.08-.08a2.11,2.11,0,0,0,1.88-1.31c1-2,1.56-5.84,2-8.92l1-6.44.58,0q.27,9.75.57,19.51-6,.44-12,1l-.06-.65a2.65,2.65,0,0,0,1.33-.92Q82.68,122.21,80.27,95a2.57,2.57,0,0,0-1.59-.58c0-.19,0-.39-.05-.58q6.44-.59,12.88-1,1,9.14,2,18.26l-.66,0-2.28-7.37c-2.24-7.22-3.09-7.59-4.85-7.45l-1.16.09q1,11.88,1.94,23.76" transform="translate(0 0)"/>
    <path class="e" d="M103,148.16a2,2,0,0,0,1.39.64c0,.22,0,.44,0,.65-2.21.13-4.42.26-6.63.41,0-.21,0-.43,0-.65a2,2,0,0,0,1.35-.81L95.59,93.9A2.73,2.73,0,0,0,94,93.21c0-.19,0-.38,0-.58,2.62-.17,5.24-.34,7.86-.48,4.8-.26,6.06,5.77,6.26,10.1.15,3.27.31,6.54.46,9.81.22,4.69-.84,9.86-6.11,10.15l-.94.06q.77,12.95,1.52,25.89m.93-46.28c-.34-6.35-1.44-6.3-4-6.15q.68,11.43,1.34,22.86c1.42-.08,3.54-.2,3.33-4.24L104,101.88" transform="translate(0 0)"/>
    <path class="e" d="M119.17,111.94l-.24-.28c.67-1.54,1.39-3.23,1.2-10-.16-5.71-.7-7.36-2.17-7.31s-2,1.87-1.83,5.41q.74,21.44,1.48,42.88c.08,2.17.51,3.24,1.64,3.2,2-.06,1.91-4.18,1.83-6.92,0-2-.33-7.65-.91-9.59a6.8,6.8,0,0,0-.75-1.78l.22-.22q2.67,3.57,5.29,7.15l.12,5.28c.09,4.19-1.15,9.33-5.58,9.47-3.59.12-5.51-2.83-5.7-7.31q-.84-20.46-1.67-40.93c-.22-5.26.64-9.79,5.57-10s6.36,3.23,6.5,9.58c0,1.52.06,3,.1,4.55q-2.58,3.39-5.1,6.79" transform="translate(0 0)"/>
    <path class="e" d="M131.69,116.8h.12q1.4-12.22,2.92-24.44a1.45,1.45,0,0,0-.93-.64c0-.2,0-.39,0-.58q3.18,0,6.34,0v.58a2.53,2.53,0,0,0-1.23.64q-2.09,12-4,23.93,2.12,15.55,4,31.12a2,2,0,0,0,1.13.44c0,.21,0,.43,0,.65q-3,0-6,0v-.65a1.31,1.31,0,0,0,1.07-.45q-1.56-15-3.27-29.95h-.12q.17,14.85.34,29.69a2.33,2.33,0,0,0,1.42.71v.65q-3.32,0-6.63.1c0-.22,0-.44,0-.65a2,2,0,0,0,1.34-.75q-.48-27.37-1-54.75a2.57,2.57,0,0,0-1.49-.62v-.58c2.42,0,4.84-.08,7.26-.11v.58a2.6,2.6,0,0,0-1.53.67q.15,12.21.28,24.41" transform="translate(0 0)"/>
    <path class="e" d="M153.78,141.21c-.11,4.48-1.71,7.82-5.7,7.76s-5.65-3.16-5.63-7.93q.11-21.27.23-42.55c0-4.91,2.19-7.79,6.13-7.74,4.25.07,6.09,3.16,6,7.92Zm-3.06-43.42c0-2.24-.49-3.55-2-3.57-1.65,0-2,1.78-2.06,3.51q-.25,22.08-.5,44.14c0,2.09.41,3.54,1.88,3.56,1.64,0,1.84-2,1.87-3.51q.38-22.06.77-44.13" transform="translate(0 0)"/>
    <path class="e" d="M162.65,118.42c1.29,0,2.41.09,3.44-4.78.35-1.63.7-3.25,1-4.88l.61,0-1,23.17-.58,0c-.2-1.5-.41-3-.62-4.51-.71-5.3-1.54-5.34-3-5.39q-.42,11.81-.86,23.6l1.08,0a2.1,2.1,0,0,0,2-1.07C166,142.7,167,139,167.81,136l1.74-6.28.58,0q-.88,9.72-1.74,19.44-6-.28-12-.45c0-.22,0-.44,0-.65a2.77,2.77,0,0,0,1.43-.76q.83-27.28,1.66-54.58A2.53,2.53,0,0,0,158,92c0-.19,0-.39,0-.58q6.45.18,12.9.49-.09,9.18-.2,18.36l-.66,0q-.69-3.8-1.4-7.59c-1.37-7.44-2.16-7.9-3.93-8l-1.17,0q-.44,11.91-.86,23.82" transform="translate(0 0)"/>
    <path class="e" d="M198.78,133.74c3.44-14.33,5.42-24.81,9.16-39.09,1.84.19,3.68.38,5.51.59l-.06.57a2.38,2.38,0,0,0-1.62.62l-5.9,54.23a2.11,2.11,0,0,0,1.31.94c0,.21-.05.43-.07.64l-6.64-.69.06-.65a2,2,0,0,0,1.49-.65c2.32-17.53,6.13-47.9,6.09-48-4.56,17.83-7.29,31-11.42,48.89l-2.86-.27,5-55.76a1.78,1.78,0,0,0-1.46-.93c0-.19,0-.38.05-.57,2.17.18,5,.43,7.12.64,0,.2,0,.39-.05.58a2.35,2.35,0,0,0-1.55.65c-1.77,14-4.18,38.17-4.14,38.22" transform="translate(0 0)"/>
    <path class="e" d="M221.92,144.82c-.51,3.8-2.17,9-7.08,8.33q-3.28-.41-6.55-.77c0-.22.05-.43.07-.65a2.44,2.44,0,0,0,1.44-.63q3.13-27.14,6.26-54.26a2.28,2.28,0,0,0-1.39-.88l.07-.58c2.31.26,4.61.54,6.91.82,5.64.71,5.69,5.4,5.07,10q-.72,5.32-1.42,10.67c-.75,5.58-3.24,6.35-4.67,6.82,2.11,1.22,3.74,2.82,2.92,8.91q-.81,6.07-1.63,12.17m-2-45.19q-1.34,11-2.69,22.09l.89.1c1.88.24,2.63-1.49,2.88-3.42q.94-7.49,1.9-15c.23-1.79-.12-3.44-1.76-3.64l-1.22-.15m-3.14,25.81-2.91,23.89c1.07.12,3.43.42,4-4.31l1.88-14.76c.38-3,.09-4.43-2-4.69l-1-.13" transform="translate(0 0)"/>
    <path class="e" d="M236.49,148.7c-.7,4.42-2.74,7.53-6.69,6.93s-5.2-3.88-4.54-8.61l5.88-42.14c.68-4.86,3.22-7.43,7.13-6.85,4.22.63,5.63,3.94,4.88,8.64l-6.66,42m2.74-43.44c.34-2.21,0-3.58-1.47-3.8-1.64-.24-2.27,1.49-2.52,3.21q-3.18,21.83-6.37,43.67c-.3,2.08-.06,3.57,1.4,3.79,1.62.24,2.09-1.73,2.32-3.23q3.33-21.83,6.64-43.64" transform="translate(0 0)"/>
    <path class="e" d="M196.12,94.12c0-.2,0-.39,0-.58q-7.63-.65-15.28-1.13l0,.58a2.27,2.27,0,0,1,1.42.82l-3.51,54.5a2.42,2.42,0,0,1-1.4.7c0,.22,0,.44,0,.65q3.28.21,6.57.45c0-.22,0-.44,0-.65a2.52,2.52,0,0,1-1.34-.89l3.75-53.06,3.91.29-4.06,53a2.12,2.12,0,0,1-1.47.69c0,.21,0,.43,0,.64,2.21.17,4.42.34,6.62.53l.06-.65a2.15,2.15,0,0,1-1.34-.9q2.25-27.22,4.51-54.43a2.58,2.58,0,0,1,1.59-.59" transform="translate(0 0)"/>
  </g>
</svg>
